solid OpenSCAD_Model
  facet normal -0 -0 -1
    outer loop
      vertex -4 0 0
      vertex -4 9 0
      vertex -3.69552 -1.53073 0
    endloop
  endfacet
  facet normal 0 -0 -1
    outer loop
      vertex 1.24698 1.56366 0
      vertex -4 9 0
      vertex 18 9 0
    endloop
  endfacet
  facet normal -0 0 -1
    outer loop
      vertex 13 6 0
      vertex 18 9 0
      vertex 18 6 0
    endloop
  endfacet
  facet normal 0 0 -1
    outer loop
      vertex -1.80194 -0.739178 0
      vertex -3.69552 -1.53073 0
      vertex -2 0 0
    endloop
  endfacet
  facet normal 0 0 -1
    outer loop
      vertex -3.69552 -1.53073 0
      vertex 13 -4 0
      vertex 0 -4 0
    endloop
  endfacet
  facet normal 0 0 -1
    outer loop
      vertex -3.69552 -1.53073 0
      vertex 0 -4 0
      vertex -1.53073 -3.69552 0
    endloop
  endfacet
  facet normal 0 0 -1
    outer loop
      vertex -3.69552 -1.53073 0
      vertex -1.53073 -3.69552 0
      vertex -2.82843 -2.82843 0
    endloop
  endfacet
  facet normal 0 -0 -1
    outer loop
      vertex -3.69552 -1.53073 0
      vertex -4 9 0
      vertex -2 0 0
    endloop
  endfacet
  facet normal 0 0 -1
    outer loop
      vertex 0 -1.84828 0
      vertex 13 -4 0
      vertex 0 -2 0
    endloop
  endfacet
  facet normal 0 0 -1
    outer loop
      vertex -3.69552 -1.53073 0
      vertex -1.80194 -0.739178 0
      vertex -1.80194 -0.867767 0
    endloop
  endfacet
  facet normal -0 0 -1
    outer loop
      vertex 1.24698 1.56366 0
      vertex 13 6 0
      vertex 2 0 0
    endloop
  endfacet
  facet normal 0 0 -1
    outer loop
      vertex -3.69552 -1.53073 0
      vertex -1.75812 -0.902711 0
      vertex -1.73205 -1 0
    endloop
  endfacet
  facet normal -0 0 -1
    outer loop
      vertex -3.69552 -1.53073 0
      vertex -1.73205 -1 0
      vertex -1 -1.73205 0
    endloop
  endfacet
  facet normal 0 0 -1
    outer loop
      vertex -3.69552 -1.53073 0
      vertex -1 -1.73205 0
      vertex -0.575545 -1.84578 0
    endloop
  endfacet
  facet normal 0 0 -1
    outer loop
      vertex -3.69552 -1.53073 0
      vertex -0.575545 -1.84578 0
      vertex -0.445042 -1.94986 0
    endloop
  endfacet
  facet normal 0 0 -1
    outer loop
      vertex -3.69552 -1.53073 0
      vertex -0.445042 -1.94986 0
      vertex 13 -4 0
    endloop
  endfacet
  facet normal -0 0 -1
    outer loop
      vertex -0.445042 -1.94986 0
      vertex -0.305772 -1.91807 0
      vertex 0 -2 0
    endloop
  endfacet
  facet normal 0 0 -1
    outer loop
      vertex -0.445042 -1.94986 0
      vertex 0 -2 0
      vertex 13 -4 0
    endloop
  endfacet
  facet normal 0 0 -1
    outer loop
      vertex 1.24698 -1.56366 0
      vertex 13 -4 0
      vertex 0 -1.84828 0
    endloop
  endfacet
  facet normal 0 0 -1
    outer loop
      vertex 2 0 0
      vertex 13 -4 0
      vertex 1.24698 -1.56366 0
    endloop
  endfacet
  facet normal 0 0 -1
    outer loop
      vertex 1.24698 1.56366 0
      vertex 18 9 0
      vertex 13 6 0
    endloop
  endfacet
  facet normal -0 -0 -1
    outer loop
      vertex 0 2 0
      vertex -4 9 0
      vertex 1.24698 1.56366 0
    endloop
  endfacet
  facet normal 0 -0 -1
    outer loop
      vertex -0.305772 1.91807 0
      vertex -4 9 0
      vertex 0 2 0
    endloop
  endfacet
  facet normal -0 -0 -1
    outer loop
      vertex 0 1.84828 0
      vertex 0 2 0
      vertex 1.24698 1.56366 0
    endloop
  endfacet
  facet normal -0 -0 -1
    outer loop
      vertex -0.445042 1.94986 0
      vertex -4 9 0
      vertex -0.305772 1.91807 0
    endloop
  endfacet
  facet normal 0 -0 -1
    outer loop
      vertex -0.575545 1.84578 0
      vertex -4 9 0
      vertex -0.445042 1.94986 0
    endloop
  endfacet
  facet normal 0 -0 -1
    outer loop
      vertex -1 1.73205 0
      vertex -4 9 0
      vertex -0.575545 1.84578 0
    endloop
  endfacet
  facet normal 0 -0 -1
    outer loop
      vertex -1.73205 1 0
      vertex -4 9 0
      vertex -1 1.73205 0
    endloop
  endfacet
  facet normal 0 -0 -1
    outer loop
      vertex -1.80194 0.867767 0
      vertex -4 9 0
      vertex -1.75812 0.902711 0
    endloop
  endfacet
  facet normal 0 0 -1
    outer loop
      vertex -4 9 0
      vertex -1.73205 1 0
      vertex -1.75812 0.902711 0
    endloop
  endfacet
  facet normal 0 -0 -1
    outer loop
      vertex -2 0 0
      vertex -4 9 0
      vertex -1.80194 0.867767 0
    endloop
  endfacet
  facet normal 0 0 -1
    outer loop
      vertex -2 0 0
      vertex -1.80194 0.867767 0
      vertex -1.80194 0.739178 0
    endloop
  endfacet
  facet normal 0 0 -1
    outer loop
      vertex -1.75812 -0.902711 0
      vertex -3.69552 -1.53073 0
      vertex -1.80194 -0.867767 0
    endloop
  endfacet
  facet normal 0 0 -1
    outer loop
      vertex 13 -4 0
      vertex 2 0 0
      vertex 13 6 0
    endloop
  endfacet
  facet normal -1 -0 -0
    outer loop
      vertex -4 0 0
      vertex -4 0 10
      vertex -4 9 0
    endloop
  endfacet
  facet normal -1 0 0
    outer loop
      vertex -4 9 0
      vertex -4 0 10
      vertex -4 9 10
    endloop
  endfacet
  facet normal -0.980785 -0.19509 -0
    outer loop
      vertex -4 0 0
      vertex -3.69552 -1.53073 0
      vertex -4 0 10
    endloop
  endfacet
  facet normal -0.980785 -0.19509 0
    outer loop
      vertex -4 0 10
      vertex -3.69552 -1.53073 0
      vertex -3.69552 -1.53073 10
    endloop
  endfacet
  facet normal -0.83147 -0.55557 -0
    outer loop
      vertex -3.69552 -1.53073 0
      vertex -2.82843 -2.82843 0
      vertex -3.69552 -1.53073 10
    endloop
  endfacet
  facet normal -0.83147 -0.55557 0
    outer loop
      vertex -3.69552 -1.53073 10
      vertex -2.82843 -2.82843 0
      vertex -2.82843 -2.82843 10
    endloop
  endfacet
  facet normal -0.55557 -0.83147 0
    outer loop
      vertex -2.82843 -2.82843 10
      vertex -2.82843 -2.82843 0
      vertex -1.53073 -3.69552 0
    endloop
  endfacet
  facet normal -0.55557 -0.83147 0
    outer loop
      vertex -1.53073 -3.69552 10
      vertex -2.82843 -2.82843 10
      vertex -1.53073 -3.69552 0
    endloop
  endfacet
  facet normal -0.19509 -0.980785 0
    outer loop
      vertex -1.53073 -3.69552 10
      vertex -1.53073 -3.69552 0
      vertex 0 -4 0
    endloop
  endfacet
  facet normal -0.19509 -0.980785 0
    outer loop
      vertex 0 -4 10
      vertex -1.53073 -3.69552 10
      vertex 0 -4 0
    endloop
  endfacet
  facet normal 0 -1 0
    outer loop
      vertex 6.78647 -4 4.11832
      vertex 0 -4 0
      vertex 13 -4 0
    endloop
  endfacet
  facet normal 0 -1 0
    outer loop
      vertex 6.78647 -4 4.11832
      vertex 6.78647 -4 5.88168
      vertex 0 -4 10
    endloop
  endfacet
  facet normal 0 -1 0
    outer loop
      vertex 0 -4 10
      vertex 0 -4 0
      vertex 6.78647 -4 4.11832
    endloop
  endfacet
  facet normal 0 -1 0
    outer loop
      vertex 13 -4 10
      vertex 0 -4 10
      vertex 6.78647 -4 5.88168
    endloop
  endfacet
  facet normal 0 -1 0
    outer loop
      vertex 13 -4 10
      vertex 6.78647 -4 5.88168
      vertex 8.46352 -4 6.42658
    endloop
  endfacet
  facet normal 0 -1 0
    outer loop
      vertex 13 -4 10
      vertex 9.5 -4 5
      vertex 13 -4 0
    endloop
  endfacet
  facet normal 0 -1 0
    outer loop
      vertex 13 -4 10
      vertex 8.46352 -4 6.42658
      vertex 9.5 -4 5
    endloop
  endfacet
  facet normal 0 -1 0
    outer loop
      vertex 8.46352 -4 3.57341
      vertex 6.78647 -4 4.11832
      vertex 13 -4 0
    endloop
  endfacet
  facet normal 0 -1 0
    outer loop
      vertex 9.5 -4 5
      vertex 8.46352 -4 3.57341
      vertex 13 -4 0
    endloop
  endfacet
  facet normal 1 0 -0
    outer loop
      vertex 13 -4 10
      vertex 13 -4 0
      vertex 13 6 0
    endloop
  endfacet
  facet normal 1 0 0
    outer loop
      vertex 13 6 10
      vertex 13 -4 10
      vertex 13 6 0
    endloop
  endfacet
  facet normal 0 -1 0
    outer loop
      vertex 13 6 10
      vertex 13 6 0
      vertex 18 6 0
    endloop
  endfacet
  facet normal 0 -1 0
    outer loop
      vertex 18 6 10
      vertex 13 6 10
      vertex 18 6 0
    endloop
  endfacet
  facet normal 1 0 -0
    outer loop
      vertex 18 6 10
      vertex 18 6 0
      vertex 18 9 0
    endloop
  endfacet
  facet normal 1 0 0
    outer loop
      vertex 18 9 10
      vertex 18 6 10
      vertex 18 9 0
    endloop
  endfacet
  facet normal 0 1 0
    outer loop
      vertex 7.25 9 3.70096
      vertex 6.78647 9 4.11832
      vertex 7.06043 9 4.02931
    endloop
  endfacet
  facet normal 0 1 0
    outer loop
      vertex 8.46352 9 6.42659
      vertex -4 9 10
      vertex 18 9 10
    endloop
  endfacet
  facet normal 0 1 0
    outer loop
      vertex -4 9 0
      vertex -4 9 10
      vertex 6.5 9 5
    endloop
  endfacet
  facet normal 0 1 0
    outer loop
      vertex -4 9 0
      vertex 6.5 9 5
      vertex 6.78647 9 4.50381
    endloop
  endfacet
  facet normal 0 1 0
    outer loop
      vertex -4 9 0
      vertex 6.78647 9 4.50381
      vertex 6.78647 9 4.11832
    endloop
  endfacet
  facet normal 0 1 -0
    outer loop
      vertex 8.07098 9 3.70096
      vertex 18 9 0
      vertex 7.25 9 3.70096
    endloop
  endfacet
  facet normal 0 1 0
    outer loop
      vertex -4 9 0
      vertex 6.78647 9 4.11832
      vertex 7.25 9 3.70096
    endloop
  endfacet
  facet normal 0 1 0
    outer loop
      vertex -4 9 0
      vertex 7.25 9 3.70096
      vertex 18 9 0
    endloop
  endfacet
  facet normal 0 1 -0
    outer loop
      vertex 9.5 9 5
      vertex 18 9 0
      vertex 8.75 9 3.70096
    endloop
  endfacet
  facet normal 0 1 0
    outer loop
      vertex 8.07098 9 3.70096
      vertex 8.46352 9 3.57342
      vertex 18 9 0
    endloop
  endfacet
  facet normal 0 1 0
    outer loop
      vertex 8.46352 9 3.57342
      vertex 8.55619 9 3.70096
      vertex 18 9 0
    endloop
  endfacet
  facet normal 0 1 0
    outer loop
      vertex 8.55619 9 3.70096
      vertex 8.75 9 3.70096
      vertex 18 9 0
    endloop
  endfacet
  facet normal 0 1 0
    outer loop
      vertex 18 9 0
      vertex 9.5 9 5
      vertex 18 9 10
    endloop
  endfacet
  facet normal 0 1 0
    outer loop
      vertex 9.5 9 5
      vertex 8.75 9 6.29904
      vertex 18 9 10
    endloop
  endfacet
  facet normal 0 1 0
    outer loop
      vertex 6.78647 9 5.88168
      vertex -4 9 10
      vertex 7.06043 9 5.97069
    endloop
  endfacet
  facet normal 0 1 0
    outer loop
      vertex 8.07098 9 6.29904
      vertex -4 9 10
      vertex 8.46352 9 6.42659
    endloop
  endfacet
  facet normal 0 1 0
    outer loop
      vertex 8.75 9 6.29904
      vertex 8.46352 9 6.42659
      vertex 18 9 10
    endloop
  endfacet
  facet normal 0 1 0
    outer loop
      vertex 7.25 9 6.29904
      vertex -4 9 10
      vertex 8.07098 9 6.29904
    endloop
  endfacet
  facet normal 0 1 0
    outer loop
      vertex 7.06043 9 5.97069
      vertex -4 9 10
      vertex 7.25 9 6.29904
    endloop
  endfacet
  facet normal 0 1 0
    outer loop
      vertex 6.78647 9 5.49619
      vertex -4 9 10
      vertex 6.78647 9 5.88168
    endloop
  endfacet
  facet normal 0 1 0
    outer loop
      vertex 8.46352 9 6.42659
      vertex 8.75 9 6.29904
      vertex 8.55619 9 6.29904
    endloop
  endfacet
  facet normal 0 1 0
    outer loop
      vertex 6.5 9 5
      vertex -4 9 10
      vertex 6.78647 9 5.49619
    endloop
  endfacet
  facet normal 0.965926 -0.258819 0
    outer loop
      vertex -2 0 10
      vertex -2 0 0
      vertex -1.80194 0.739178 0
    endloop
  endfacet
  facet normal 0.965926 -0.258819 0
    outer loop
      vertex -1.80194 0.739178 10
      vertex -2 0 10
      vertex -1.80194 0.739178 0
    endloop
  endfacet
  facet normal 0.965926 0.258819 0
    outer loop
      vertex -1.80194 -0.739178 0
      vertex -2 0 0
      vertex -2 0 10
    endloop
  endfacet
  facet normal 0.965926 0.258819 -0
    outer loop
      vertex -1.80194 -0.739178 10
      vertex -1.80194 -0.739178 0
      vertex -2 0 10
    endloop
  endfacet
  facet normal 1 0 0
    outer loop
      vertex -1.80194 0.867767 0
      vertex -1.80194 0.867767 10
      vertex -1.80194 0.739178 10
    endloop
  endfacet
  facet normal 1 0 0
    outer loop
      vertex -1.80194 0.739178 0
      vertex -1.80194 0.867767 0
      vertex -1.80194 0.739178 10
    endloop
  endfacet
  facet normal 0.62349 -0.781831 0
    outer loop
      vertex -1.75812 0.902711 0
      vertex -1.75812 0.902711 10
      vertex -1.80194 0.867767 10
    endloop
  endfacet
  facet normal 0.62349 -0.781831 0
    outer loop
      vertex -1.80194 0.867767 0
      vertex -1.75812 0.902711 0
      vertex -1.80194 0.867767 10
    endloop
  endfacet
  facet normal 0.965926 -0.258819 0
    outer loop
      vertex -1.75812 0.902711 10
      vertex -1.75812 0.902711 0
      vertex -1.73205 1 0
    endloop
  endfacet
  facet normal 0.965926 -0.258819 0
    outer loop
      vertex -1.73205 1 10
      vertex -1.75812 0.902711 10
      vertex -1.73205 1 0
    endloop
  endfacet
  facet normal 0.707107 -0.707107 0
    outer loop
      vertex -1.73205 1 10
      vertex -1.73205 1 0
      vertex -1 1.73205 0
    endloop
  endfacet
  facet normal 0.707107 -0.707107 0
    outer loop
      vertex -1 1.73205 10
      vertex -1.73205 1 10
      vertex -1 1.73205 0
    endloop
  endfacet
  facet normal 0.258819 -0.965926 0
    outer loop
      vertex -1 1.73205 10
      vertex -1 1.73205 0
      vertex -0.575545 1.84578 0
    endloop
  endfacet
  facet normal 0.258819 -0.965926 0
    outer loop
      vertex -0.575545 1.84578 10
      vertex -1 1.73205 10
      vertex -0.575545 1.84578 0
    endloop
  endfacet
  facet normal 0.62349 -0.781831 0
    outer loop
      vertex -0.445042 1.94986 0
      vertex -0.445042 1.94986 10
      vertex -0.575545 1.84578 10
    endloop
  endfacet
  facet normal 0.62349 -0.781831 0
    outer loop
      vertex -0.575545 1.84578 0
      vertex -0.445042 1.94986 0
      vertex -0.575545 1.84578 10
    endloop
  endfacet
  facet normal -0.222521 -0.974928 -0
    outer loop
      vertex -0.305772 1.91807 0
      vertex -0.305772 1.91807 10
      vertex -0.445042 1.94986 10
    endloop
  endfacet
  facet normal -0.222521 -0.974928 -0
    outer loop
      vertex -0.445042 1.94986 0
      vertex -0.305772 1.91807 0
      vertex -0.445042 1.94986 10
    endloop
  endfacet
  facet normal 0.258819 -0.965926 0
    outer loop
      vertex -0.305772 1.91807 10
      vertex -0.305772 1.91807 0
      vertex 0 2 0
    endloop
  endfacet
  facet normal 0.258819 -0.965926 0
    outer loop
      vertex 0 2 10
      vertex -0.305772 1.91807 10
      vertex 0 2 0
    endloop
  endfacet
  facet normal -1 -0 -0
    outer loop
      vertex 0 1.84828 0
      vertex 0 1.84828 10
      vertex 0 2 0
    endloop
  endfacet
  facet normal -1 0 0
    outer loop
      vertex 0 2 0
      vertex 0 1.84828 10
      vertex 0 2 10
    endloop
  endfacet
  facet normal -0.222521 -0.974928 -0
    outer loop
      vertex 1.24698 1.56366 0
      vertex 1.24698 1.56366 10
      vertex 0 1.84828 10
    endloop
  endfacet
  facet normal -0.222521 -0.974928 -0
    outer loop
      vertex 0 1.84828 0
      vertex 1.24698 1.56366 0
      vertex 0 1.84828 10
    endloop
  endfacet
  facet normal -0.900969 -0.433884 0
    outer loop
      vertex 2 0 10
      vertex 1.24698 1.56366 10
      vertex 2 0 0
    endloop
  endfacet
  facet normal -0.900969 -0.433884 0
    outer loop
      vertex 2 0 0
      vertex 1.24698 1.56366 10
      vertex 1.24698 1.56366 0
    endloop
  endfacet
  facet normal -0.900969 0.433884 0
    outer loop
      vertex 2 0 10
      vertex 2 0 0
      vertex 1.24698 -1.56366 10
    endloop
  endfacet
  facet normal -0.900969 0.433884 0
    outer loop
      vertex 1.24698 -1.56366 10
      vertex 2 0 0
      vertex 1.24698 -1.56366 0
    endloop
  endfacet
  facet normal -0.222521 0.974928 0
    outer loop
      vertex 1.24698 -1.56366 10
      vertex 1.24698 -1.56366 0
      vertex 0 -1.84828 10
    endloop
  endfacet
  facet normal -0.222521 0.974928 0
    outer loop
      vertex 0 -1.84828 10
      vertex 1.24698 -1.56366 0
      vertex 0 -1.84828 0
    endloop
  endfacet
  facet normal -1 -0 -0
    outer loop
      vertex 0 -2 0
      vertex 0 -2 10
      vertex 0 -1.84828 0
    endloop
  endfacet
  facet normal -1 0 0
    outer loop
      vertex 0 -1.84828 0
      vertex 0 -2 10
      vertex 0 -1.84828 10
    endloop
  endfacet
  facet normal 0.258819 0.965926 0
    outer loop
      vertex -0.305772 -1.91807 0
      vertex -0.305772 -1.91807 10
      vertex 0 -2 0
    endloop
  endfacet
  facet normal 0.258819 0.965926 0
    outer loop
      vertex 0 -2 0
      vertex -0.305772 -1.91807 10
      vertex 0 -2 10
    endloop
  endfacet
  facet normal -0.222521 0.974928 0
    outer loop
      vertex -0.305772 -1.91807 10
      vertex -0.305772 -1.91807 0
      vertex -0.445042 -1.94986 10
    endloop
  endfacet
  facet normal -0.222521 0.974928 0
    outer loop
      vertex -0.445042 -1.94986 10
      vertex -0.305772 -1.91807 0
      vertex -0.445042 -1.94986 0
    endloop
  endfacet
  facet normal 0.62349 0.781831 -0
    outer loop
      vertex -0.445042 -1.94986 10
      vertex -0.445042 -1.94986 0
      vertex -0.575545 -1.84578 10
    endloop
  endfacet
  facet normal 0.62349 0.781831 -0
    outer loop
      vertex -0.575545 -1.84578 10
      vertex -0.445042 -1.94986 0
      vertex -0.575545 -1.84578 0
    endloop
  endfacet
  facet normal 0.258819 0.965926 0
    outer loop
      vertex -1 -1.73205 0
      vertex -1 -1.73205 10
      vertex -0.575545 -1.84578 0
    endloop
  endfacet
  facet normal 0.258819 0.965926 0
    outer loop
      vertex -0.575545 -1.84578 0
      vertex -1 -1.73205 10
      vertex -0.575545 -1.84578 10
    endloop
  endfacet
  facet normal 0.707107 0.707107 0
    outer loop
      vertex -1.73205 -1 0
      vertex -1.73205 -1 10
      vertex -1 -1.73205 0
    endloop
  endfacet
  facet normal 0.707107 0.707107 0
    outer loop
      vertex -1 -1.73205 0
      vertex -1.73205 -1 10
      vertex -1 -1.73205 10
    endloop
  endfacet
  facet normal 0.965926 0.258819 0
    outer loop
      vertex -1.73205 -1 0
      vertex -1.75812 -0.902711 0
      vertex -1.75812 -0.902711 10
    endloop
  endfacet
  facet normal 0.965926 0.258819 -0
    outer loop
      vertex -1.73205 -1 10
      vertex -1.73205 -1 0
      vertex -1.75812 -0.902711 10
    endloop
  endfacet
  facet normal 0.62349 0.781831 -0
    outer loop
      vertex -1.75812 -0.902711 10
      vertex -1.75812 -0.902711 0
      vertex -1.80194 -0.867767 10
    endloop
  endfacet
  facet normal 0.62349 0.781831 -0
    outer loop
      vertex -1.80194 -0.867767 10
      vertex -1.75812 -0.902711 0
      vertex -1.80194 -0.867767 0
    endloop
  endfacet
  facet normal 1 0 0
    outer loop
      vertex -1.80194 -0.739178 0
      vertex -1.80194 -0.739178 10
      vertex -1.80194 -0.867767 10
    endloop
  endfacet
  facet normal 1 0 0
    outer loop
      vertex -1.80194 -0.867767 0
      vertex -1.80194 -0.739178 0
      vertex -1.80194 -0.867767 10
    endloop
  endfacet
  facet normal 0 -0 1
    outer loop
      vertex -4 9 10
      vertex -4 0 10
      vertex -3.69552 -1.53073 10
    endloop
  endfacet
  facet normal 0 0 1
    outer loop
      vertex -1.53073 -3.69552 10
      vertex -4 9 10
      vertex -2.82843 -2.82843 10
    endloop
  endfacet
  facet normal 0 0 1
    outer loop
      vertex -2.82843 -2.82843 10
      vertex -4 9 10
      vertex -3.69552 -1.53073 10
    endloop
  endfacet
  facet normal -0 -0 1
    outer loop
      vertex -2 0 10
      vertex -4 9 10
      vertex -1.53073 -3.69552 10
    endloop
  endfacet
  facet normal -0 0 1
    outer loop
      vertex 13 6 10
      vertex -4 9 10
      vertex 13 -4 10
    endloop
  endfacet
  facet normal -0 0 1
    outer loop
      vertex 18 6 10
      vertex -4 9 10
      vertex 13 6 10
    endloop
  endfacet
  facet normal 0 0 1
    outer loop
      vertex 18 9 10
      vertex -4 9 10
      vertex 18 6 10
    endloop
  endfacet
  facet normal -0 -0 1
    outer loop
      vertex -1.73205 -1 10
      vertex -1.75812 -0.902711 10
      vertex -1.53073 -3.69552 10
    endloop
  endfacet
  facet normal -0 -0 1
    outer loop
      vertex -1.80194 -0.867767 10
      vertex -2 0 10
      vertex -1.53073 -3.69552 10
    endloop
  endfacet
  facet normal -0 0 1
    outer loop
      vertex -1.80194 0.867767 10
      vertex -4 9 10
      vertex -1.80194 0.739178 10
    endloop
  endfacet
  facet normal -0 0 1
    outer loop
      vertex -1.75812 0.902711 10
      vertex -4 9 10
      vertex -1.80194 0.867767 10
    endloop
  endfacet
  facet normal -0 -0 1
    outer loop
      vertex -1 -1.73205 10
      vertex -1.73205 -1 10
      vertex 0 -4 10
    endloop
  endfacet
  facet normal -0 0 1
    outer loop
      vertex -1.73205 1 10
      vertex -4 9 10
      vertex -1.75812 0.902711 10
    endloop
  endfacet
  facet normal -0 0 1
    outer loop
      vertex -0.575545 1.84578 10
      vertex -4 9 10
      vertex -1 1.73205 10
    endloop
  endfacet
  facet normal 0 0 1
    outer loop
      vertex 1.24698 -1.56366 10
      vertex 0 -2 10
      vertex 0 -4 10
    endloop
  endfacet
  facet normal -0 0 1
    outer loop
      vertex -0.445042 1.94986 10
      vertex -4 9 10
      vertex -0.575545 1.84578 10
    endloop
  endfacet
  facet normal 0 0 1
    outer loop
      vertex 1.24698 -1.56366 10
      vertex 0 -1.84828 10
      vertex 0 -2 10
    endloop
  endfacet
  facet normal 0 0 1
    outer loop
      vertex -0.305772 1.91807 10
      vertex -4 9 10
      vertex -0.445042 1.94986 10
    endloop
  endfacet
  facet normal -0 0 1
    outer loop
      vertex 0 2 10
      vertex -4 9 10
      vertex -0.305772 1.91807 10
    endloop
  endfacet
  facet normal 0 0 1
    outer loop
      vertex 1.24698 1.56366 10
      vertex -4 9 10
      vertex 0 2 10
    endloop
  endfacet
  facet normal -0 -0 1
    outer loop
      vertex -0.575545 -1.84578 10
      vertex -1 -1.73205 10
      vertex 0 -4 10
    endloop
  endfacet
  facet normal 0 0 1
    outer loop
      vertex 13 -4 10
      vertex -4 9 10
      vertex 1.24698 1.56366 10
    endloop
  endfacet
  facet normal -0 0 1
    outer loop
      vertex 13 -4 10
      vertex 1.24698 -1.56366 10
      vertex 0 -4 10
    endloop
  endfacet
  facet normal 0 0 1
    outer loop
      vertex 13 -4 10
      vertex 2 0 10
      vertex 1.24698 -1.56366 10
    endloop
  endfacet
  facet normal 0 -0 1
    outer loop
      vertex -0.305772 -1.91807 10
      vertex -0.445042 -1.94986 10
      vertex 0 -4 10
    endloop
  endfacet
  facet normal -0 0 1
    outer loop
      vertex 0 -2 10
      vertex -0.305772 -1.91807 10
      vertex 0 -4 10
    endloop
  endfacet
  facet normal -0 -0 1
    outer loop
      vertex -0.445042 -1.94986 10
      vertex -0.575545 -1.84578 10
      vertex 0 -4 10
    endloop
  endfacet
  facet normal 0 0 1
    outer loop
      vertex 0 1.84828 10
      vertex 1.24698 1.56366 10
      vertex 0 2 10
    endloop
  endfacet
  facet normal 0 0 1
    outer loop
      vertex 0 -4 10
      vertex -1.73205 -1 10
      vertex -1.53073 -3.69552 10
    endloop
  endfacet
  facet normal -0 -0 1
    outer loop
      vertex -1.75812 -0.902711 10
      vertex -1.80194 -0.867767 10
      vertex -1.53073 -3.69552 10
    endloop
  endfacet
  facet normal -0 0 1
    outer loop
      vertex -1.80194 -0.739178 10
      vertex -2 0 10
      vertex -1.80194 -0.867767 10
    endloop
  endfacet
  facet normal 0 0 1
    outer loop
      vertex -2 0 10
      vertex -1.80194 0.739178 10
      vertex -4 9 10
    endloop
  endfacet
  facet normal 0 0 1
    outer loop
      vertex -1.73205 1 10
      vertex -1 1.73205 10
      vertex -4 9 10
    endloop
  endfacet
  facet normal 0 0 1
    outer loop
      vertex 1.24698 1.56366 10
      vertex 2 0 10
      vertex 13 -4 10
    endloop
  endfacet
  facet normal 1 -0 0
    outer loop
      vertex 6.78647 7 5.49619
      vertex 6.78647 -4 5.88168
      vertex 6.78647 7 4.50381
    endloop
  endfacet
  facet normal 1 0 0
    outer loop
      vertex 6.78647 9 4.11832
      vertex 6.78647 9 4.50381
      vertex 6.78647 7 4.50381
    endloop
  endfacet
  facet normal 1 0 0
    outer loop
      vertex 6.78647 -4 5.88168
      vertex 6.78647 9 4.11832
      vertex 6.78647 7 4.50381
    endloop
  endfacet
  facet normal 1 -0 0
    outer loop
      vertex 6.78647 9 5.49619
      vertex 6.78647 9 5.88168
      vertex 6.78647 7 5.49619
    endloop
  endfacet
  facet normal 1 0 0
    outer loop
      vertex 6.78647 9 5.88168
      vertex 6.78647 -4 5.88168
      vertex 6.78647 7 5.49619
    endloop
  endfacet
  facet normal 1 0 -0
    outer loop
      vertex 6.78647 -4 5.88168
      vertex 6.78647 -4 4.11832
      vertex 6.78647 9 4.11832
    endloop
  endfacet
  facet normal 0.309017 -6.49775e-17 0.951056
    outer loop
      vertex 8.46352 -4 3.57341
      vertex 8.46352 9 3.57342
      vertex 8.07098 9 3.70096
    endloop
  endfacet
  facet normal 0.309017 -9.61194e-17 0.951056
    outer loop
      vertex 7.06043 7 4.02931
      vertex 8.46352 -4 3.57341
      vertex 8.07098 7 3.70096
    endloop
  endfacet
  facet normal 0.309017 -2.74462e-16 0.951056
    outer loop
      vertex 8.07098 7 3.70096
      vertex 8.46352 -4 3.57341
      vertex 8.07098 9 3.70096
    endloop
  endfacet
  facet normal 0.309017 1.60976e-16 0.951056
    outer loop
      vertex 6.78647 9 4.11832
      vertex 8.46352 -4 3.57341
      vertex 7.06043 7 4.02931
    endloop
  endfacet
  facet normal 0.309017 0 0.951056
    outer loop
      vertex 6.78647 9 4.11832
      vertex 7.06043 7 4.02931
      vertex 7.06043 9 4.02931
    endloop
  endfacet
  facet normal 0.309017 -6.49775e-17 0.951056
    outer loop
      vertex 6.78647 -4 4.11832
      vertex 8.46352 -4 3.57341
      vertex 6.78647 9 4.11832
    endloop
  endfacet
  facet normal 1.77636e-15 -1.57772e-30 2.30926e-14
    outer loop
      vertex 9.5 9 5
      vertex 9.5 7 5
      vertex 9.5 -4 5
    endloop
  endfacet
  facet normal -0.809017 0 0.587785
    outer loop
      vertex 8.55619 7 3.70096
      vertex 8.55619 9 3.70096
      vertex 8.46352 9 3.57342
    endloop
  endfacet
  facet normal -0.809017 -4.01584e-17 0.587785
    outer loop
      vertex 8.55619 7 3.70096
      vertex 8.46352 9 3.57342
      vertex 8.46352 -4 3.57341
    endloop
  endfacet
  facet normal -0.809017 -5.82345e-17 0.587785
    outer loop
      vertex 8.55619 7 3.70096
      vertex 8.46352 -4 3.57341
      vertex 9.5 -4 5
    endloop
  endfacet
  facet normal -0.809017 -1.78111e-16 0.587785
    outer loop
      vertex 8.55619 7 3.70096
      vertex 9.5 -4 5
      vertex 9.5 7 5
    endloop
  endfacet
  facet normal -0.809017 0 -0.587785
    outer loop
      vertex 8.55619 9 6.29904
      vertex 8.55619 7 6.29904
      vertex 8.46352 9 6.42659
    endloop
  endfacet
  facet normal -0.809017 1.17338e-17 -0.587785
    outer loop
      vertex 9.5 -4 5
      vertex 8.55619 7 6.29904
      vertex 9.5 7 5
    endloop
  endfacet
  facet normal -2.4869e-14 1.57772e-30 -2.30926e-14
    outer loop
      vertex 9.5 -4 5
      vertex 9.5 7 5
      vertex 9.5 9 5
    endloop
  endfacet
  facet normal -0.809017 9.8263e-17 -0.587785
    outer loop
      vertex 8.46352 -4 6.42658
      vertex 8.55619 7 6.29904
      vertex 9.5 -4 5
    endloop
  endfacet
  facet normal -0.809017 4.01583e-17 -0.587785
    outer loop
      vertex 8.46352 9 6.42659
      vertex 8.55619 7 6.29904
      vertex 8.46352 -4 6.42658
    endloop
  endfacet
  facet normal 0.309017 0 -0.951056
    outer loop
      vertex 7.06043 9 5.97069
      vertex 7.06043 7 5.97069
      vertex 6.78647 9 5.88168
    endloop
  endfacet
  facet normal 0.309017 -3.84999e-16 -0.951056
    outer loop
      vertex 6.78647 9 5.88168
      vertex 7.06043 7 5.97069
      vertex 8.46352 -4 6.42658
    endloop
  endfacet
  facet normal 0.309017 0 -0.951056
    outer loop
      vertex 8.46352 9 6.42659
      vertex 8.07098 7 6.29904
      vertex 8.07098 9 6.29904
    endloop
  endfacet
  facet normal 0.309017 6.49775e-17 -0.951056
    outer loop
      vertex 8.46352 -4 6.42658
      vertex 8.07098 7 6.29904
      vertex 8.46352 9 6.42659
    endloop
  endfacet
  facet normal 0.309017 1.3e-16 -0.951056
    outer loop
      vertex 7.06043 7 5.97069
      vertex 8.07098 7 6.29904
      vertex 8.46352 -4 6.42658
    endloop
  endfacet
  facet normal 0.309017 6.49775e-17 -0.951056
    outer loop
      vertex 6.78647 9 5.88168
      vertex 8.46352 -4 6.42658
      vertex 6.78647 -4 5.88168
    endloop
  endfacet
  facet normal 0.866025 0 -0.5
    outer loop
      vertex 6.78647 7 5.49619
      vertex 6.5 7 5
      vertex 6.5 9 5
    endloop
  endfacet
  facet normal 0.866025 0 -0.5
    outer loop
      vertex 6.78647 9 5.49619
      vertex 6.78647 7 5.49619
      vertex 6.5 9 5
    endloop
  endfacet
  facet normal 0.866025 -0 0.5
    outer loop
      vertex 6.5 9 5
      vertex 6.5 7 5
      vertex 6.78647 7 4.50381
    endloop
  endfacet
  facet normal 0.866025 -0 0.5
    outer loop
      vertex 6.78647 9 4.50381
      vertex 6.5 9 5
      vertex 6.78647 7 4.50381
    endloop
  endfacet
  facet normal 0.866025 0 -0.5
    outer loop
      vertex 7.25 7 6.29904
      vertex 7.06043 7 5.97069
      vertex 7.06043 9 5.97069
    endloop
  endfacet
  facet normal 0.866025 0 -0.5
    outer loop
      vertex 7.25 9 6.29904
      vertex 7.25 7 6.29904
      vertex 7.06043 9 5.97069
    endloop
  endfacet
  facet normal -0 -0 -1
    outer loop
      vertex 7.25 7 6.29904
      vertex 7.25 9 6.29904
      vertex 8.07098 7 6.29904
    endloop
  endfacet
  facet normal 0 0 -1
    outer loop
      vertex 8.07098 7 6.29904
      vertex 7.25 9 6.29904
      vertex 8.07098 9 6.29904
    endloop
  endfacet
  facet normal -0 -0 -1
    outer loop
      vertex 8.55619 7 6.29904
      vertex 8.55619 9 6.29904
      vertex 8.75 7 6.29904
    endloop
  endfacet
  facet normal 0 0 -1
    outer loop
      vertex 8.75 7 6.29904
      vertex 8.55619 9 6.29904
      vertex 8.75 9 6.29904
    endloop
  endfacet
  facet normal -0.866025 -0 -0.5
    outer loop
      vertex 8.75 7 6.29904
      vertex 8.75 9 6.29904
      vertex 9.5 7 5
    endloop
  endfacet
  facet normal -0.866025 2.22045e-16 -0.5
    outer loop
      vertex 9.5 7 5
      vertex 8.75 9 6.29904
      vertex 9.5 9 5
    endloop
  endfacet
  facet normal -0.866025 0 0.5
    outer loop
      vertex 8.75 7 3.70096
      vertex 9.5 7 5
      vertex 8.75 9 3.70096
    endloop
  endfacet
  facet normal -0.866025 0 0.5
    outer loop
      vertex 8.75 9 3.70096
      vertex 9.5 7 5
      vertex 9.5 9 5
    endloop
  endfacet
  facet normal 0 0 1
    outer loop
      vertex 8.75 9 3.70096
      vertex 8.55619 9 3.70096
      vertex 8.55619 7 3.70096
    endloop
  endfacet
  facet normal -0 0 1
    outer loop
      vertex 8.75 7 3.70096
      vertex 8.75 9 3.70096
      vertex 8.55619 7 3.70096
    endloop
  endfacet
  facet normal 0 -0 1
    outer loop
      vertex 7.25 9 3.70096
      vertex 7.25 7 3.70096
      vertex 8.07098 7 3.70096
    endloop
  endfacet
  facet normal 0 0 1
    outer loop
      vertex 8.07098 9 3.70096
      vertex 7.25 9 3.70096
      vertex 8.07098 7 3.70096
    endloop
  endfacet
  facet normal 0.866025 0 0.5
    outer loop
      vertex 7.25 9 3.70096
      vertex 7.06043 9 4.02931
      vertex 7.06043 7 4.02931
    endloop
  endfacet
  facet normal 0.866025 0 0.5
    outer loop
      vertex 7.25 7 3.70096
      vertex 7.25 9 3.70096
      vertex 7.06043 7 4.02931
    endloop
  endfacet
  facet normal 0 1 0
    outer loop
      vertex 6.78647 7 4.50381
      vertex 6.5 7 5
      vertex 6.78647 7 5.49619
    endloop
  endfacet
  facet normal 0 1 0
    outer loop
      vertex 7.25 7 3.70096
      vertex 7.06043 7 4.02931
      vertex 8.07098 7 3.70096
    endloop
  endfacet
  facet normal 0 1 0
    outer loop
      vertex 8.55619 7 3.70096
      vertex 9.5 7 5
      vertex 8.75 7 3.70096
    endloop
  endfacet
  facet normal 0 1 0
    outer loop
      vertex 9.5 7 5
      vertex 8.55619 7 6.29904
      vertex 8.75 7 6.29904
    endloop
  endfacet
  facet normal 0 1 0
    outer loop
      vertex 8.07098 7 6.29904
      vertex 7.06043 7 5.97069
      vertex 7.25 7 6.29904
    endloop
  endfacet
endsolid OpenSCAD_Model
